Red Heat 1988 BluRay 1080p DTS x264-LoNeWoLf

Encoded by Tequila-Bob a.k.a. bobnjeff a.k.a.LoNeWoLf

Source - NTSC BluRay Disc.

Movie has been tested and is DXVA Compliant
 
http://www.imdb.com/title/tt0095963/

Red Heat (1988) 
  104 min  -  Action , Comedy , Crime   -  17 June 1988 (USA) 
  5.7/10 X  Users: 5.7/10 (18,355 votes) 67 reviews | Critics: 38 reviews Metascore: 61/100 (based on 13 reviews from Metacritic.com) 
  Storyline
Arnold Schwarzenegger plays a Russian policeman sent after a Russian drug dealer who has escaped to the United States and is awaiting extradition in Chicago. Jim Belushi plays his temporary partner on the Chicago police. When the drug dealer escapes, the two police must overcome their differences in order to recapture him. 
 

Rated R for Strong Violence and Language, and for Nudity, and Drug Use.


Director: Walter Hill
Writers: Walter Hill (story), Harry Kleiner (screenplay), and 2 more credits » 
Stars:Arnold Schwarzenegger, James Belushi and Peter Boyle  
 

Cast
Cast overview, first billed only: 
  Arnold Schwarzenegger  ...  Capt. Ivan Danko  
  James Belushi  ...  Det. Sgt. Art Ridzik  
  Peter Boyle  ...  Cmdr. Lou Donnelly  
  Ed O'Ross  ...  Viktor 'Rosta' Rostavili  
  Laurence Fishburne  ...  Lt. Charlie Stobbs (as Larry Fishburne)  
  Gina Gershon  ...  Catherine 'Cat' Manzetti  
  Richard Bright  ...  Det. Sgt. Gallagher  
  J.W. Smith  ...  Salim  
  Brent Jennings  ...  Abdul Elijah  
  Gretchen Palmer  ...  Hooker  
  Pruitt Taylor Vince  ...  Night Clerk  
  Mike Hagerty  ...  Pat Nunn (as Michael Hagerty)  
  Brion James  ...  Streak  
  Gloria Delaney  ...  Intern  
  Peter Jason  ...  TV Announcer  



[img]http://torrent-stats.info/dace/f9dc7934.png[/img]

See all 20 full size 1920x1072 PNG files at the link below
 
http://s1015.photobucket.com/albums/af279/tequila-bob/Red%20Heat%201988/



Format : Matroska 
File size : 8.42 GiB 
Duration : 1h 44mn 
Overall bit rate : 11.6 Mbps 
Encoded date : UTC 2011-01-23 02:33:26 
Writing application : mkvmerge v4.4.0 ('Die Wiederkehr') built on Oct 31 2010 21:52:48 
Writing library : libebml v1.0.0 + libmatroska v1.0.0 

Video 
ID : 1 
Format : AVC 
Format/Info : Advanced Video Codec 
Format profile : High@L4.1 
Format settings, CABAC : Yes 
Format settings, ReFrames : 3 frames 
Muxing mode : Container profile=Unknown@4.1 
Codec ID : V_MPEG4/ISO/AVC 
Duration : 1h 44mn 
Bit rate : 9 999 Kbps 
Width : 1 920 pixels 
Height : 1 072 pixels 
Display aspect ratio : 16:9 
Frame rate : 23.976 fps 
Color space : YUV 
Chroma subsampling : 4:2:0 
Bit depth : 8 bits 
Scan type : Progressive 
Bits/(Pixel*Frame) : 0.203 
Stream size : 7.15 GiB (85%) 
Writing library : x264 core 112 r1867 22bfd31 
Encoding settings : cabac=1 / ref=4 / deblock=1:-3:-3 / analyse=0x3:0x113 / me=umh / subme=9 / psy=1 / psy_rd=1.00:0.08 / mixed_ref=1 / me_range=32 / chroma_me=1 / trellis=2 / 8x8dct=1 / cqm=0 / deadzone=21,11 / fast_pskip=0 / chroma_qp_offset=-3 / threads=6 / sliced_threads=0 / nr=0 / decimate=1 / interlaced=0 / constrained_intra=0 / bframes=6 / b_pyramid=1 / b_adapt=2 / b_bias=0 / direct=1 / weightb=1 / open_gop=2 / weightp=2 / keyint=250 / keyint_min=23 / scenecut=40 / intra_refresh=0 / rc_lookahead=60 / rc=2pass / mbtree=1 / bitrate=9999 / ratetol=1.0 / qcomp=0.60 / qpmin=10 / qpmax=51 / qpstep=4 / cplxblur=20.0 / qblur=0.5 / vbv_maxrate=50000 / vbv_bufsize=50000 / nal_hrd=none / ip_ratio=1.40 / aq=1:1.50 
Language : English 

Audio 
ID : 2 
Format : DTS 
Format/Info : Digital Theater Systems 
Codec ID : A_DTS 
Duration : 1h 44mn 
Bit rate mode : Constant 
Bit rate : 1 510 Kbps 
Channel(s) : 6 channels 
Channel positions : Front: L C R, Side: L R, LFE 
Sampling rate : 48.0 KHz 
Bit depth : 24 bits 
Video delay : 10ms 
Stream size : 1.10 GiB (13%) 
Title : 3/2+1 
Language : English 

Text #1 
ID : 3 
Format : PGS 
Codec ID : S_HDMV/PGS 
Codec ID/Info : The same subtitle format used on BDs/HD-DVDs 
Language : English 

Text #2 
ID : 4 
Format : PGS 
Codec ID : S_HDMV/PGS 
Codec ID/Info : The same subtitle format used on BDs/HD-DVDs 
Language : English 

Text #3 
ID : 5 
Format : PGS 
Codec ID : S_HDMV/PGS 
Codec ID/Info : The same subtitle format used on BDs/HD-DVDs 
Language : English 

Text #4 
ID : 6 
Format : PGS 
Codec ID : S_HDMV/PGS 
Codec ID/Info : The same subtitle format used on BDs/HD-DVDs 
Language : French 

Text #5 
ID : 7 
Format : PGS 
Codec ID : S_HDMV/PGS 
Codec ID/Info : The same subtitle format used on BDs/HD-DVDs 
Language : French 

Text #6 
ID : 8 
Format : PGS 
Codec ID : S_HDMV/PGS 
Codec ID/Info : The same subtitle format used on BDs/HD-DVDs 
Language : Spanish 

Menu & 15 Chapters





See all 20 full size 1920x1072 PNG files at the link below
 
http://s1015.photobucket.com/albums/af279/tequila-bob/Red%20Heat%201988/

